<svg width="1280" height="325" viewBox="0 0 1280 325" fill="none" xmlns="http://www.w3.org/2000/svg">
<path fill-rule="evenodd" clip-rule="evenodd" d="M-67 0.96521L-11.2258 34.6402C45.6008 68.3152 157.149 135.665 269.75 141.979C382.351 149.346 493.899 94.6238 606.5 60.9488C719.101 27.2738 830.649 14.6457 943.25 27.2738C1055.85 40.9543 1167.4 81.9957 1224.23 101.99L1280 121.985V324.035H1224.23C1167.4 324.035 1055.85 324.035 943.25 324.035C830.649 324.035 719.101 324.035 606.5 324.035C493.899 324.035 382.351 324.035 269.75 324.035C157.149 324.035 45.6008 324.035 -11.2258 324.035H-67V0.96521Z" fill="#487CFA"/>
</svg>
