<svg width="897" height="324" viewBox="0 0 897 324" fill="none" xmlns="http://www.w3.org/2000/svg">
<path fill-rule="evenodd" clip-rule="evenodd" d="M-450 0L-394.226 33.675C-337.399 67.35 -225.851 134.7 -113.25 141.014C-0.649231 148.38 110.899 93.6586 223.5 59.9836C336.101 26.3086 447.649 13.6805 560.25 26.3086C672.851 39.9891 784.399 81.0305 841.226 101.025L897 121.02V323.07H841.226C784.399 323.07 672.851 323.07 560.25 323.07C447.649 323.07 336.101 323.07 223.5 323.07C110.899 323.07 -0.649231 323.07 -113.25 323.07C-225.851 323.07 -337.399 323.07 -394.226 323.07H-450V0Z" fill="#92B1FC"/>
</svg>
